<svg width="590" height="497" viewBox="0 0 590 497" fill="none" xmlns="http://www.w3.org/2000/svg">
<g clip-path="url(#clip0_1472_27801)">
<mask id="mask0_1472_27801" style="mask-type:luminance" maskUnits="userSpaceOnUse" x="0" y="0" width="590" height="497">
<path d="M589.5 0H0.5V497H589.5V0Z" fill="white"/>
</mask>
<g mask="url(#mask0_1472_27801)">
<mask id="mask1_1472_27801" style="mask-type:luminance" maskUnits="userSpaceOnUse" x="0" y="0" width="590" height="497">
<path d="M589.5 0H0.5V497H589.5V0Z" fill="white"/>
</mask>
<g mask="url(#mask1_1472_27801)">
<path d="M355.161 24.0824C348.952 16.85 329.636 10.0295 313.599 14.5243C303.295 17.4123 286.746 25.9962 277.276 40.6926C264.103 61.1375 268.715 82.2708 274.845 102.923C282.508 128.739 328.71 144.073 336.152 170.603C343.595 197.131 323.685 224.554 344.292 237.561C364.898 250.566 382.693 224.527 391.97 227.392C401.247 230.256 411.944 240.9 422.9 239.592C433.856 238.285 436.137 208.113 439.164 200.842C442.19 193.569 457.492 191.273 457.039 179.331C456.587 167.389 440.207 166.685 437.524 157.65C434.843 148.614 445.196 142.992 444.382 121.514C443.567 100.034 417.05 99.0421 411.976 93.9589C406.901 88.8746 410.978 75.6719 403.49 68.2792C396.002 60.8864 383.342 65.921 373.6 58.4276C361.533 49.1457 362.922 33.1228 355.161 24.0824Z" fill="url(#paint0_linear_1472_27801)"/>
<path d="M466.963 163.681H197.689C185.399 163.681 175.435 173.645 175.435 185.935V321.685C175.435 333.976 185.399 343.939 197.689 343.939H466.963C479.254 343.939 489.217 333.976 489.217 321.685V185.935C489.217 173.645 479.254 163.681 466.963 163.681Z" fill="#3B7DDF"/>
<path d="M424.68 163.681H197.689C185.399 163.681 175.435 173.645 175.435 185.935V309.445C175.435 321.736 185.399 331.699 197.689 331.699H424.68C436.971 331.699 446.934 321.736 446.934 309.445V185.935C446.934 173.645 436.971 163.681 424.68 163.681Z" fill="#4989E8"/>
<path d="M85.4448 241.762C62.2347 265.891 67.2105 287.151 66.7703 289.509C71.1146 298.181 81.1258 311.056 86.4161 293.177C91.7064 275.298 87.9729 251.451 85.4448 241.762Z" fill="#E6BA3C"/>
<path d="M53.6278 318.506C44.1 317.269 26.3819 304.148 31.7324 261.558C35.7417 264.594 38.6515 266.442 43.2335 274.003C40.7346 259.803 47.877 244.78 55.9148 223.511C64.3013 234.326 76.6478 257.389 77.3935 282.781C81.2907 277.694 87.3748 271.849 96.9019 265.32C100.596 280.377 102.674 314.541 81.4325 330.743C64.1342 343.937 64.1379 328.398 67.4785 313.756L54.3222 312.141C54.2443 314.274 54.0207 316.402 53.6278 318.506Z" fill="url(#paint1_linear_1472_27801)"/>
<path d="M102.194 345.991C102.194 367.595 96.9425 385.109 67.4024 385.109C37.8622 385.109 32.6106 367.595 32.6106 345.991C32.6106 324.387 26.7026 306.873 67.4024 306.873C108.102 306.873 102.194 324.387 102.194 345.991Z" fill="#F5F5F5"/>
<path d="M472.525 310.559H97.545C88.3271 310.559 80.8545 318.031 80.8545 327.249C80.8545 336.467 88.3271 343.94 97.545 343.94H472.525C481.743 343.94 489.215 336.467 489.215 327.249C489.215 318.031 481.743 310.559 472.525 310.559Z" fill="#3B7DDF"/>
<path d="M112.011 381.771L120.356 343.939H137.603L120.356 381.771H112.011Z" fill="#A3A3A3"/>
<path d="M387.96 381.771L379.614 343.939H362.368L379.614 381.771H387.96Z" fill="#A3A3A3"/>
<path d="M305.876 117.594C308.787 109.135 306.907 100.308 305.604 96.9516L321.754 77.4473C320.45 84.9137 330.321 115.742 334.574 124.368L305.876 117.594Z" fill="url(#paint2_linear_1472_27801)"/>
<path d="M325.244 72.3605C325.26 69.5953 327.514 67.3663 330.28 67.3819C333.044 67.3978 335.273 69.6716 335.258 72.4368C335.229 77.6295 330.995 81.8515 325.802 81.8218L325.191 81.8184L325.244 72.3605Z" fill="#F6BD93"/>
<path d="M172.555 422.146L185.213 261.906C199.85 247.523 227.187 229.719 219.43 273.562C211.672 317.406 188.024 390.936 177.169 422.22L172.555 422.146Z" fill="url(#paint3_linear_1472_27801)"/>
<path d="M173.311 435.367C180.695 429.361 180.971 417.83 179.922 413.918C176.918 412.042 172.559 410.859 172.559 410.859C170.429 415.991 169.819 419.319 164.485 425.148C159.153 430.977 149.41 437.133 150.226 441.09C151.042 445.048 164.081 442.874 173.311 435.367Z" fill="#102353"/>
<path d="M176.753 438.195L175.219 429.824L179.777 423.22L179.543 437.684L176.753 438.195Z" fill="#102353"/>
<path d="M327.508 65.7C327.62 46.1184 311.425 41.5019 303.314 41.6412C284.652 41.9619 283.771 55.4381 284.288 71.5739C284.804 87.71 296.106 98.3351 302.967 102.833C312.631 109.17 327.369 90.1769 327.508 65.7Z" fill="#F6BD93"/>
<path d="M117.666 407.277L223.951 286.694C244.29 283.972 276.843 286.135 244.328 316.551C211.811 346.968 148.768 391.594 121.311 410.105L117.666 407.277Z" fill="url(#paint4_linear_1472_27801)"/>
<path d="M110.337 418.307C119.848 417.934 126.989 408.875 128.497 405.116C127.22 401.813 124.443 398.251 124.443 398.251C119.66 401.077 117.174 403.374 109.41 404.836C101.647 406.298 90.1582 405.375 88.4366 409.031C86.7142 412.687 98.449 418.772 110.337 418.307Z" fill="#102353"/>
<path d="M111.394 422.634L115.19 415.017L122.799 412.47L113.932 423.9L111.394 422.634Z" fill="#102353"/>
<path d="M257.217 328.361C273.908 278.29 318.972 355.066 351.797 267.719C371.269 205.964 348.379 134.464 344.378 120.826C340.378 107.188 311.807 110.263 293.855 113.899C260.463 184.031 270.975 219.938 253.323 217.091C167.088 203.182 199.357 254.367 152.623 283.853C152.623 283.853 209.563 327.601 257.217 328.361Z" fill="url(#paint5_linear_1472_27801)"/>
<path d="M234.447 131.345L218.363 129.924C215.914 129.708 213.754 131.517 213.537 133.966L209.717 177.193C209.501 179.641 211.31 181.802 213.759 182.018L229.843 183.439C232.292 183.656 234.452 181.846 234.668 179.398L238.488 136.171C238.705 133.722 236.895 131.562 234.447 131.345Z" fill="#C4C4C4"/>
<path d="M206.164 161.508C199.516 166.398 210.228 177.723 214.968 180.74C218.76 183.155 238.341 184.924 247.657 185.507L244.458 174.242C242.857 173.35 240.984 172.347 238.939 171.299L229.499 166.362C219.064 161.515 209.833 158.81 206.164 161.508Z" fill="#F6BD93"/>
<path d="M229.763 185.495C239.173 179.864 244.103 174.12 243.896 169.971C264.049 180.421 263.899 184.353 286.839 191.917C301.397 196.718 299.714 139.674 308.939 126.391C318.164 113.108 337.835 109.282 341.164 125.216C342.873 133.394 338.293 170.174 336.004 182.764C333.714 195.353 324.555 223.045 297.636 228.94C270.715 234.835 244.392 198.335 229.763 185.495Z" fill="url(#paint6_linear_1472_27801)"/>
<path d="M328.987 310.559H282.254V336.151H328.987V310.559Z" fill="#3B7DDF"/>
</g>
<path d="M448.5 373H413.5C410.739 373 408.5 375.239 408.5 378V412C408.5 414.761 410.739 417 413.5 417H448.5C451.261 417 453.5 414.761 453.5 412V378C453.5 375.239 451.261 373 448.5 373Z" fill="url(#paint7_linear_1472_27801)"/>
<path d="M454.5 364H405.5C402.739 364 400.5 366.239 400.5 369V377C400.5 379.761 402.739 382 405.5 382H454.5C457.261 382 459.5 379.761 459.5 377V369C459.5 366.239 457.261 364 454.5 364Z" fill="#EE8871"/>
<path d="M437.5 364H423.5V417H437.5V364Z" fill="url(#paint8_linear_1472_27801)"/>
<path d="M466.435 323.806H432.039C429.278 323.806 427.039 326.044 427.039 328.806V359.013C427.039 361.775 429.278 364.013 432.039 364.013H466.435C469.196 364.013 471.435 361.775 471.435 359.013V328.806C471.435 326.044 469.196 323.806 466.435 323.806Z" fill="url(#paint9_linear_1472_27801)"/>
<path d="M472.298 315.429H424.5C421.739 315.429 419.5 317.668 419.5 320.429V328.02C419.5 330.781 421.739 333.02 424.5 333.02H472.298C475.06 333.02 477.298 330.781 477.298 328.02V320.429C477.298 317.668 475.06 315.429 472.298 315.429Z" fill="#DB533E"/>
<path fill-rule="evenodd" clip-rule="evenodd" d="M430.389 306.214C430.389 301.125 434.515 297 439.604 297C444.693 297 448.818 301.125 448.818 306.214C448.818 301.125 452.943 297 458.032 297C463.121 297 467.246 301.125 467.246 306.214C467.246 311.303 463.121 315.428 458.032 315.428L455.519 315.429V364.013H442.117V315.429L439.604 315.428C434.515 315.428 430.389 311.303 430.389 306.214ZM441.818 306.214V308.428H439.604C438.381 308.428 437.389 307.437 437.389 306.214C437.389 304.991 438.381 304 439.604 304C440.827 304 441.818 304.991 441.818 306.214ZM455.818 306.214C455.818 304.991 456.809 304 458.032 304C459.255 304 460.246 304.991 460.246 306.214C460.246 307.437 459.255 308.428 458.032 308.428H455.818V306.214Z" fill="url(#paint10_linear_1472_27801)"/>
<path d="M527.712 344.245H456.99C454.229 344.245 451.99 346.484 451.99 349.245V412.001C451.99 414.762 454.229 417.001 456.99 417.001H527.712C530.473 417.001 532.712 414.762 532.712 412.001V349.245C532.712 346.484 530.473 344.245 527.712 344.245Z" fill="url(#paint11_linear_1472_27801)"/>
<path d="M533.536 335.977H449.5C446.739 335.977 444.5 338.216 444.5 340.977V348.339C444.5 351.101 446.739 353.339 449.5 353.339H533.536C536.297 353.339 538.536 351.101 538.536 348.339V340.977C538.536 338.216 536.297 335.977 533.536 335.977Z" fill="#6AA4FB"/>
<path fill-rule="evenodd" clip-rule="evenodd" d="M467.801 323.988C467.801 317.367 473.207 312 479.828 312C486.477 312 491.909 317.377 491.934 324.02C491.959 317.377 497.391 312 504.04 312C510.661 312 516.067 317.367 516.067 323.988C516.067 330.609 510.7 335.976 504.079 335.976H498.591V416.999H485.277V335.976H479.789C473.168 335.976 467.801 330.609 467.801 323.988ZM484.934 324.067V328.976H479.789C477.034 328.976 474.801 326.743 474.801 323.988C474.801 321.263 477.044 319 479.828 319C482.656 319 484.934 321.298 484.934 324.067ZM498.934 324.067C498.934 321.298 501.212 319 504.04 319C506.824 319 509.067 321.263 509.067 323.988C509.067 326.743 506.834 328.976 504.079 328.976H498.934V324.067Z" fill="url(#paint12_linear_1472_27801)"/>
</g>
</g>
<defs>
<linearGradient id="paint0_linear_1472_27801" x1="427.897" y1="190.827" x2="301.612" y2="-9.21567" gradientUnits="userSpaceOnUse">
<stop stop-color="#733F03"/>
<stop offset="1" stop-color="#A55800"/>
</linearGradient>
<linearGradient id="paint1_linear_1472_27801" x1="57.2286" y1="285.981" x2="58.8274" y2="306.766" gradientUnits="userSpaceOnUse">
<stop stop-color="#EFC344"/>
<stop offset="1" stop-color="#E5BA3C"/>
</linearGradient>
<linearGradient id="paint2_linear_1472_27801" x1="309.514" y1="91.3562" x2="322.867" y2="102.483" gradientUnits="userSpaceOnUse">
<stop stop-color="#A67754"/>
<stop offset="1" stop-color="#F6BD93"/>
</linearGradient>
<linearGradient id="paint3_linear_1472_27801" x1="198.219" y1="245.617" x2="195.363" y2="422.514" gradientUnits="userSpaceOnUse">
<stop stop-color="#EBAD7E"/>
<stop offset="1" stop-color="#F6BD93"/>
</linearGradient>
<linearGradient id="paint4_linear_1472_27801" x1="244.13" y1="281.469" x2="135.689" y2="421.258" gradientUnits="userSpaceOnUse">
<stop stop-color="#F4BA8F"/>
<stop offset="1" stop-color="#F6BD93"/>
</linearGradient>
<linearGradient id="paint5_linear_1472_27801" x1="296.718" y1="169.245" x2="246.09" y2="336.706" gradientUnits="userSpaceOnUse">
<stop stop-color="#D94730"/>
<stop offset="1" stop-color="#C13822"/>
</linearGradient>
<linearGradient id="paint6_linear_1472_27801" x1="331.166" y1="108.593" x2="247.953" y2="198.253" gradientUnits="userSpaceOnUse">
<stop stop-color="#F1553D"/>
<stop offset="1" stop-color="#D94730"/>
</linearGradient>
<linearGradient id="paint7_linear_1472_27801" x1="431" y1="373" x2="431" y2="417" gradientUnits="userSpaceOnUse">
<stop stop-color="#D47864"/>
<stop offset="0.505208" stop-color="#EE8871"/>
</linearGradient>
<linearGradient id="paint8_linear_1472_27801" x1="430.5" y1="364" x2="430.5" y2="417" gradientUnits="userSpaceOnUse">
<stop stop-color="#FAC93D"/>
<stop offset="1" stop-color="#D8A021"/>
</linearGradient>
<linearGradient id="paint9_linear_1472_27801" x1="449.237" y1="323.806" x2="449.237" y2="364.013" gradientUnits="userSpaceOnUse">
<stop stop-color="#A23726"/>
<stop offset="0.505208" stop-color="#DB533E"/>
</linearGradient>
<linearGradient id="paint10_linear_1472_27801" x1="448.818" y1="297" x2="448.818" y2="364.013" gradientUnits="userSpaceOnUse">
<stop stop-color="#FAC93D"/>
<stop offset="1" stop-color="#D8A021"/>
</linearGradient>
<linearGradient id="paint11_linear_1472_27801" x1="492.35" y1="344.245" x2="492.35" y2="417.001" gradientUnits="userSpaceOnUse">
<stop stop-color="#3F7AD4"/>
<stop offset="0.341199" stop-color="#6AA4FB"/>
</linearGradient>
<linearGradient id="paint12_linear_1472_27801" x1="491.934" y1="312" x2="491.934" y2="416.999" gradientUnits="userSpaceOnUse">
<stop stop-color="#FAC93D"/>
<stop offset="1" stop-color="#D8A021"/>
</linearGradient>
<clipPath id="clip0_1472_27801">
<rect width="589" height="497" fill="white" transform="translate(0.5)"/>
</clipPath>
</defs>
</svg>
